<?xml version="1.0" standalone="no"?>
<!DOCTYPE svg PUBLIC "-//W3C//DTD SVG 1.1//EN"
  "http://www.w3.org/Graphics/SVG/1.1/DTD/svg11.dtd">
<svg width="59.150001525878906mm" height="17.547999858856198mm" viewBox="-29.575000762939453 -12.102999687194822 59.150001525878906 17.547999858856198" xmlns="http://www.w3.org/2000/svg" version="1.1">
	<title>svgOutput</title>
	<desc>made with tinkercad</desc>
<path d="M 28.575000762939453 -8.383999824523924 L 17.5 -8.383999824523924 L 17.5 -5.269999980926513 L 17.85700035095215 -5.269999980926513 L 28.575000762939453 -5.269999980926513 L 28.575000762939453 -1.3389999866485591 L 17.85700035095215 -1.3389999866485591 L 17.85700035095215 1.7749999761581416 L 28.575000762939453 1.7749999761581416 L 28.575000762939453 4.445000171661376 L 17.85700035095215 4.445000171661376 L 17.5 4.445000171661376 L -17.85700035095215 4.445000171661376 L -18.214000701904297 4.445000171661376 L -20.018999099731445 4.445000171661376 L -28.575000762939453 4.445000171661376 L -28.575000762939453 1.7749999761581416 L -20.018999099731445 1.7749999761581416 L -18.214000701904297 1.7749999761581416 L -18.214000701904297 -1.3389999866485591 L -20.018999099731445 -1.3389999866485591 L -28.575000762939453 -1.3389999866485591 L -28.575000762939453 -5.317999839782714 L -20.018999099731445 -5.317999839782714 L -18.214000701904297 -5.317999839782714 L -17.85700035095215 -5.317999839782714 L -17.85700035095215 -8.432999610900877 L -20.018999099731445 -8.432999610900877 L -28.575000762939453 -8.432999610900877 L -28.575000762939453 -11.102999687194822 L -20.018999099731445 -11.102999687194822 L -17.85700035095215 -11.102999687194822 L 17.5 -11.102999687194822 L 28.575000762939453 -11.102999687194822 L 28.575000762939453 -8.383999824523924 z" fill="none" stroke="rgb(255,0,0)" stroke-width="0.001mm" />
</svg>